<svg width="32" height="33" viewBox="0 0 32 33" fill="none" xmlns="http://www.w3.org/2000/svg">
<path d="M19.2 3.69995C18.315 3.69995 17.6 4.41495 17.6 5.29995C17.6 6.18495 18.315 6.89995 19.2 6.89995H23.335L13.265 16.97C12.64 17.595 12.64 18.61 13.265 19.235C13.89 19.86 14.905 19.86 15.53 19.235L25.6 9.16495V13.3C25.6 14.185 26.315 14.9 27.2 14.9C28.085 14.9 28.8 14.185 28.8 13.3V5.29995C28.8 4.41495 28.085 3.69995 27.2 3.69995H19.2ZM7.19995 8.49995C4.98995 8.49995 3.19995 10.29 3.19995 12.5V25.3C3.19995 27.51 4.98995 29.3 7.19995 29.3H20C22.21 29.3 24 27.51 24 25.3V21.3C24 20.415 23.285 19.7 22.4 19.7C21.515 19.7 20.8 20.415 20.8 21.3V25.3C20.8 25.74 20.44 26.1 20 26.1H7.19995C6.75995 26.1 6.39995 25.74 6.39995 25.3V12.5C6.39995 12.06 6.75995 11.7 7.19995 11.7H11.2C12.085 11.7 12.8 10.985 12.8 10.1C12.8 9.21495 12.085 8.49995 11.2 8.49995H7.19995Z" fill="white"/>
</svg>
