<svg width="32" height="33" viewBox="0 0 32 33" fill="none" xmlns="http://www.w3.org/2000/svg">
<path d="M1.6026 7.57251C0.957603 7.57251 0.372603 7.96251 0.122603 8.56251C-0.127397 9.16251 0.0126027 9.84751 0.472603 10.3025L9.6026 19.4375V25.1725C9.6026 25.5975 9.7726 26.0025 10.0726 26.3025L13.2726 29.5025C13.7326 29.9625 14.4176 30.0975 15.0176 29.8475C15.6176 29.5975 16.0026 29.0175 16.0026 28.3725V19.4375L25.1326 10.3075C25.5926 9.84751 25.7276 9.16251 25.4776 8.56251C25.2276 7.96251 24.6476 7.57251 24.0026 7.57251H1.6026Z" fill="white"/>
<rect x="27.1936" y="7.57251" width="4.8064" height="3.70947" rx="1.85474" fill="white"/>
<rect x="18.9192" y="17.282" width="13.0808" height="3.70947" rx="1.85474" fill="white"/>
<rect x="18.9192" y="26.262" width="13.0808" height="3.70947" rx="1.85474" fill="white"/>
</svg>
