<svg width="28" height="33" viewBox="0 0 28 33" fill="none" xmlns="http://www.w3.org/2000/svg">
<path d="M11.2 2.36875L12.3667 1.0375C12.6583 0.7 13.125 0.5 13.6135 0.5C14.4667 0.5 15.1667 1.1 15.1667 1.83125V3.21875C15.1667 4.0375 15.5604 4.825 16.2531 5.3875L22.4292 10.4375C25.9875 13.35 28 17.3875 28 21.6063C28 27.625 22.3125 32.5 15.2906 32.5H14C6.27083 32.5 0 27.125 0 20.5V20.2625C0 17.2125 1.41458 14.2875 3.93021 12.1313L4.18542 11.9125C4.49167 11.65 4.91458 11.5 5.35208 11.5C6.26354 11.5 7 12.1313 7 12.9125V18.5C7 20.7062 9.09271 22.5 11.6667 22.5C14.2406 22.5 16.3333 20.7062 16.3333 18.5V18.2563C16.3333 17.1313 15.8083 16.05 14.8823 15.2563L12.0677 12.8438C10.3177 11.3438 9.33333 9.3 9.33333 7.175C9.33333 5.44375 9.98958 3.75 11.2 2.36875Z" fill="white"/>
</svg>
