<svg width="32" height="33" viewBox="0 0 32 33" fill="none" xmlns="http://www.w3.org/2000/svg">
<g clip-path="url(#clip0_220_833)">
<path d="M10 16.5C10 15.1125 10.075 13.775 10.2062 12.5H21.7875C21.925 13.775 21.9937 15.1125 21.9937 16.5C21.9937 17.8875 21.9188 19.225 21.7875 20.5H10.2062C10.0687 19.225 10 17.8875 10 16.5ZM8.2 20.5H0.50625C0.175001 19.2188 0 17.8813 0 16.5C0 15.1187 0.175001 13.7812 0.50625 12.5H8.2C8.06875 13.7875 8 15.125 8 16.5C8 17.875 8.06875 19.2125 8.2 20.5ZM1.1625 22.5H8.45625C9.08125 26.4938 10.3188 29.8375 11.9125 31.975C7.01875 30.6812 3.0375 27.1312 1.16875 22.5H1.1625ZM10.4813 22.5H21.5188C21.1375 24.775 20.55 26.7875 19.8313 28.4187C19.175 29.8937 18.4438 30.9625 17.7375 31.6375C17.0375 32.3 16.4563 32.5 16 32.5C15.5438 32.5 14.9625 32.3 14.2625 31.6375C13.5563 30.9625 12.825 29.8937 12.1688 28.4187C11.4438 26.7937 10.8625 24.7812 10.4813 22.5ZM23.5437 22.5H30.8375C28.9625 27.1312 24.9875 30.6812 20.0875 31.975C21.6812 29.8375 22.9187 26.4938 23.5437 22.5ZM31.4937 20.5H23.8C23.9313 19.2125 24 17.875 24 16.5C24 15.125 23.9313 13.7875 23.8 12.5H31.4937C31.825 13.7812 32 15.1187 32 16.5C32 17.8813 31.825 19.2188 31.4937 20.5ZM19.8313 4.5875C20.5563 6.2125 21.1375 8.225 21.5188 10.5H10.4813C10.8625 8.225 11.45 6.2125 12.1688 4.5875C12.825 3.1125 13.5563 2.04375 14.2625 1.36875C14.9625 0.699999 15.5438 0.5 16 0.5C16.4563 0.5 17.0375 0.699999 17.7375 1.3625C18.4438 2.0375 19.175 3.10625 19.8313 4.58125V4.5875ZM23.5437 10.5C22.9187 6.50625 21.6812 3.1625 20.0875 1.025C24.9875 2.31875 28.9625 5.86875 30.8375 10.5H23.5437ZM1.1625 10.5C3.0375 5.86875 7.0125 2.31875 11.9062 1.025C10.3125 3.1625 9.08125 6.50625 8.45 10.5H1.15625H1.1625Z" fill="white"/>
</g>
<defs>
<clipPath id="clip0_220_833">
<rect width="32" height="32" fill="white" transform="matrix(-1 0 0 -1 32 32.5)"/>
</clipPath>
</defs>
</svg>
