<svg width="32" height="33" viewBox="0 0 32 33" fill="none" xmlns="http://www.w3.org/2000/svg">
<g clip-path="url(#clip0_220_4519)">
<path d="M13.4188 0.544759C14.5 0.775994 15.1875 1.83843 14.9562 2.91961L13.7625 8.50051H21.6688L23.0438 2.08216C23.275 1.00098 24.3375 0.313523 25.4188 0.544759C26.5 0.775994 27.1875 1.83843 26.9562 2.91961L25.7625 8.50051H30C31.1063 8.50051 32 9.3942 32 10.5004C32 11.6066 31.1063 12.5003 30 12.5003H24.9L23.1875 20.4997H27.425C28.5312 20.4997 29.425 21.3934 29.425 22.4996C29.425 23.6058 28.5312 24.4995 27.425 24.4995H22.325L20.95 30.9178C20.7188 31.999 19.6562 32.6865 18.575 32.4552C17.4938 32.224 16.8062 31.1616 17.0375 30.0804L18.2313 24.4995H10.325L8.95 30.9178C8.71875 31.999 7.65625 32.6865 6.575 32.4552C5.49375 32.224 4.80625 31.1616 5.0375 30.0804L6.2375 24.4995H2C0.89375 24.4995 0 23.6058 0 22.4996C0 21.3934 0.89375 20.4997 2 20.4997H7.1L8.8125 12.5003H4.575C3.46875 12.5003 2.575 11.6066 2.575 10.5004C2.575 9.3942 3.46875 8.50051 4.575 8.50051H9.675L11.05 2.08216C11.275 1.00098 12.3375 0.313523 13.4188 0.544759ZM12.9 12.5003L11.1875 20.4997H19.0938L20.8062 12.5003H12.9Z" fill="white"/>
</g>
<defs>
<clipPath id="clip0_220_4519">
<rect width="32" height="32" fill="white" transform="translate(0 0.5)"/>
</clipPath>
</defs>
</svg>
