<svg width="24" height="33" viewBox="0 0 24 33" fill="none" xmlns="http://www.w3.org/2000/svg">
<path d="M18.115 23.7727C18.5575 22.4212 19.4423 21.197 20.4423 20.1424C22.4241 18.0576 23.6363 15.2394 23.6363 12.1364C23.6363 5.71212 18.4241 0.5 11.9999 0.5C5.57565 0.5 0.363525 5.71212 0.363525 12.1364C0.363525 15.2394 1.57565 18.0576 3.55746 20.1424C4.55746 21.197 5.44837 22.4212 5.88474 23.7727H18.109H18.115ZM17.8181 26.6818H6.18171V27.6515C6.18171 30.3303 8.3514 32.5 11.0302 32.5H12.9696C15.6484 32.5 17.8181 30.3303 17.8181 27.6515V26.6818ZM11.515 7.28788C9.10292 7.28788 7.1514 9.23939 7.1514 11.6515C7.1514 12.4576 6.50292 13.1061 5.69686 13.1061C4.8908 13.1061 4.24231 12.4576 4.24231 11.6515C4.24231 7.63333 7.49686 4.37879 11.515 4.37879C12.3211 4.37879 12.9696 5.02727 12.9696 5.83333C12.9696 6.63939 12.3211 7.28788 11.515 7.28788Z" fill="white"/>
</svg>
