<svg width="32" height="33" viewBox="0 0 32 33" fill="none" xmlns="http://www.w3.org/2000/svg">
<g clip-path="url(#clip0_220_829)">
<path d="M26 13.5C26 16.3687 25.0688 19.0188 23.5 21.1688L31.4125 29.0875C32.1937 29.8687 32.1937 31.1375 31.4125 31.9188C30.6313 32.7 29.3625 32.7 28.5812 31.9188L20.6688 24C18.5188 25.575 15.8687 26.5 13 26.5C5.81875 26.5 0 20.6812 0 13.5C0 6.31875 5.81875 0.5 13 0.5C20.1812 0.5 26 6.31875 26 13.5ZM13 22.5C14.1819 22.5 15.3522 22.2672 16.4442 21.8149C17.5361 21.3626 18.5282 20.6997 19.364 19.864C20.1997 19.0282 20.8626 18.0361 21.3149 16.9442C21.7672 15.8522 22 14.6819 22 13.5C22 12.3181 21.7672 11.1478 21.3149 10.0558C20.8626 8.96392 20.1997 7.97177 19.364 7.13604C18.5282 6.30031 17.5361 5.63738 16.4442 5.18508C15.3522 4.73279 14.1819 4.5 13 4.5C11.8181 4.5 10.6478 4.73279 9.55585 5.18508C8.46392 5.63738 7.47177 6.30031 6.63604 7.13604C5.80031 7.97177 5.13738 8.96392 4.68508 10.0558C4.23279 11.1478 4 12.3181 4 13.5C4 14.6819 4.23279 15.8522 4.68508 16.9442C5.13738 18.0361 5.80031 19.0282 6.63604 19.864C7.47177 20.6997 8.46392 21.3626 9.55585 21.8149C10.6478 22.2672 11.8181 22.5 13 22.5Z" fill="white"/>
</g>
<defs>
<clipPath id="clip0_220_829">
<rect width="32" height="32" fill="white" transform="translate(0 0.5)"/>
</clipPath>
</defs>
</svg>
