<svg width="32" height="25" viewBox="0 0 32 25" fill="none" xmlns="http://www.w3.org/2000/svg">
<path d="M2.70906 13.087C2.70906 14.8597 3.87588 16.421 5.57602 16.9231L21.0805 21.5025C23.6434 22.2595 26.2136 20.3386 26.2136 17.6663V7.36623C26.2136 4.70345 23.6605 2.78401 21.1025 3.52362L5.59802 8.00656C3.88687 8.50132 2.70906 10.0679 2.70906 11.8492V13.087Z" fill="white"/>
<path d="M0 8.58849C0 7.76083 0.696155 7.05282 1.55491 7.05282H2.3563C3.21505 7.05282 3.9112 7.76083 3.9112 8.58849V16.4774C3.9112 17.3051 3.21505 18.0131 2.3563 18.0131H1.55491C0.696155 18.0131 0 17.3051 0 16.4774V8.58849Z" fill="white"/>
<path d="M28.0888 1.75007C28.0888 0.922415 28.785 0.251465 29.6437 0.251465H30.4451C31.3038 0.251465 32 0.922415 32 1.75007V23.25C32 24.0776 31.3038 24.7486 30.4451 24.7486H29.6437C28.785 24.7486 28.0888 24.0776 28.0888 23.25V1.75007Z" fill="white"/>
<path d="M18.7465 19.6823C18.7465 22.4803 16.393 24.7486 13.4899 24.7486C10.5867 24.7486 8.23328 22.4803 8.23328 19.6823C8.23328 16.8843 10.5867 14.616 13.4899 14.616C16.393 14.616 18.7465 16.8843 18.7465 19.6823ZM10.7752 19.6823C10.7752 21.1273 11.9906 22.2987 13.4899 22.2987C14.9892 22.2987 16.2046 21.1273 16.2046 19.6823C16.2046 18.2373 14.9892 17.0659 13.4899 17.0659C11.9906 17.0659 10.7752 18.2373 10.7752 19.6823Z" fill="white"/>
</svg>
