<svg width="32" height="33" viewBox="0 0 32 33" fill="currentColor" xmlns="http://www.w3.org/2000/svg">
<g clip-path="url(#clip0_220_830)">
<path d="M18.2448 0.5C9.42337 0.5 2.28052 7.66429 2.28052 16.5C2.28052 25.3357 9.42337 32.5 18.2448 32.5C22.5734 32.5 26.4948 30.7714 29.3734 27.9714C29.7305 27.6214 29.8234 27.0786 29.5948 26.6357C29.3662 26.1929 28.8734 25.9429 28.3805 26.0286C27.6805 26.15 26.9662 26.2143 26.2305 26.2143C19.3091 26.2143 13.6948 20.5857 13.6948 13.6429C13.6948 8.94286 16.2662 4.85 20.0734 2.69286C20.5091 2.44286 20.7305 1.94286 20.6234 1.45714C20.5162 0.971429 20.1019 0.607143 19.6019 0.564286C19.1519 0.528572 18.7019 0.507143 18.2448 0.507143V0.5Z" fill="currentColor"/>
</g>
<defs>
<clipPath id="clip0_220_830">
<rect width="32" height="32" fill="currentColor" transform="translate(0 0.5)"/>
</clipPath>
</defs>
</svg>
