<svg width="32" height="33" viewBox="0 0 32 33" fill="none" xmlns="http://www.w3.org/2000/svg">
<path d="M0 26.5V8C0 7.16875 0.66875 6.5 1.5 6.5C2.33125 6.5 3 7.16875 3 8V26C3 26.8312 3.66875 27.5 4.5 27.5C5.33125 27.5 6 26.8312 6 26V6.5C6 4.29375 7.79375 2.5 10 2.5H28C30.2062 2.5 32 4.29375 32 6.5V26.5C32 28.7062 30.2062 30.5 28 30.5H4C1.79375 30.5 0 28.7062 0 26.5ZM10 8.5V12.5C10 13.6062 10.8937 14.5 12 14.5H16C17.1063 14.5 18 13.6062 18 12.5V8.5C18 7.39375 17.1063 6.5 16 6.5H12C10.8937 6.5 10 7.39375 10 8.5ZM11.5 23.5C10.6687 23.5 10 24.1687 10 25C10 25.8312 10.6687 26.5 11.5 26.5H26.5C27.3313 26.5 28 25.8312 28 25C28 24.1687 27.3313 23.5 26.5 23.5H11.5ZM10 19C10 19.8312 10.6687 20.5 11.5 20.5H26.5C27.3313 20.5 28 19.8312 28 19C28 18.1687 27.3313 17.5 26.5 17.5H11.5C10.6687 17.5 10 18.1687 10 19ZM22.5 11.5C21.6687 11.5 21 12.1687 21 13C21 13.8312 21.6687 14.5 22.5 14.5H26.5C27.3313 14.5 28 13.8312 28 13C28 12.1687 27.3313 11.5 26.5 11.5H22.5Z" fill="white"/>
</svg>
