<svg width="20" height="33" viewBox="0 0 20 33" fill="none" xmlns="http://www.w3.org/2000/svg">
<path d="M4 10.5C4 7.1875 6.6875 4.5 10 4.5C13.3125 4.5 16 7.1875 16 10.5C16 13.1687 14.2563 15.4312 11.8438 16.2125C10.0688 16.7875 8 18.4188 8 21V22.5C8 23.6063 8.89375 24.5 10 24.5C11.1062 24.5 12 23.6063 12 22.5V21C12 20.8937 12.0375 20.7438 12.2188 20.5438C12.4062 20.3375 12.7125 20.1375 13.075 20.0187C17.0938 18.725 20 14.9563 20 10.5C20 4.975 15.525 0.5 10 0.5C4.475 0.5 0 4.975 0 10.5C0 11.6062 0.89375 12.5 2 12.5C3.10625 12.5 4 11.6062 4 10.5ZM10 32.5C11.3813 32.5 12.5 31.3813 12.5 30C12.5 28.6187 11.3813 27.5 10 27.5C8.61875 27.5 7.5 28.6187 7.5 30C7.5 31.3813 8.61875 32.5 10 32.5Z" fill="white"/>
</svg>
