<svg width="128" height="128" viewBox="0 0 128 128" fill="none" xmlns="http://www.w3.org/2000/svg">
<path d="M19.2002 72C19.2002 85.26 29.9881 96 43.3073 96L44.9145 96C48.4703 96 51.343 93.14 51.343 89.6C51.343 86.06 48.4703 83.2 44.9145 83.2L43.3073 83.2C37.0997 83.2 32.0573 78.18 32.0573 72L32.0573 70.4L44.9145 70.4C52.006 70.4 57.7716 64.66 57.7716 57.6L57.7716 44.8C57.7716 37.74 52.006 32 44.9145 32L32.0573 32C24.9658 32 19.2002 37.74 19.2002 44.8L19.2002 72ZM70.6288 72C70.6288 85.26 81.4167 96 94.7359 96L96.343 96C99.8988 96 102.772 93.14 102.772 89.6C102.772 86.06 99.8988 83.2 96.343 83.2L94.7359 83.2C88.5283 83.2 83.4859 78.18 83.4859 72L83.4859 70.4L96.343 70.4C103.435 70.4 109.2 64.66 109.2 57.6L109.2 44.8C109.2 37.74 103.435 32 96.343 32L83.4859 32C76.3944 32 70.6288 37.74 70.6288 44.8L70.6288 72Z" fill="#4C9AFF"/>
</svg>
