<svg width="32" height="33" viewBox="0 0 32 33" fill="none" xmlns="http://www.w3.org/2000/svg">
<path d="M22.4 13.3C25.05 13.3 27.2 11.15 27.2 8.49995C27.2 5.84995 25.05 3.69995 22.4 3.69995C19.75 3.69995 17.6 5.84995 17.6 8.49995C17.6 8.76995 17.625 9.03995 17.665 9.29995L11.18 12.905C10.335 12.155 9.21995 11.7 7.99995 11.7C5.34995 11.7 3.19995 13.85 3.19995 16.5C3.19995 19.15 5.34995 21.3 7.99995 21.3C9.21995 21.3 10.33 20.845 11.18 20.095L17.665 23.7C17.62 23.96 17.6 24.225 17.6 24.5C17.6 27.15 19.75 29.3 22.4 29.3C25.05 29.3 27.2 27.15 27.2 24.5C27.2 21.85 25.05 19.7 22.4 19.7C21.18 19.7 20.07 20.155 19.22 20.905L12.735 17.3C12.78 17.04 12.8 16.775 12.8 16.5C12.8 16.225 12.775 15.96 12.735 15.7L19.22 12.095C20.065 12.845 21.18 13.3 22.4 13.3Z" fill="white"/>
</svg>
