<svg width="32" height="33" viewBox="0 0 32 33" fill="none" xmlns="http://www.w3.org/2000/svg">
<path d="M10.5099 3.19512C10.8799 3.04012 11.2999 3.08512 11.6349 3.30512L16.0249 6.21512L20.4149 3.30512C20.7499 3.08512 21.1699 3.04512 21.5399 3.19512C21.9099 3.34512 22.1699 3.67512 22.2499 4.06512L23.2949 9.22512L28.4549 10.2701C28.8449 10.3501 29.1749 10.6201 29.3249 10.9851C29.4749 11.3501 29.4349 11.7751 29.2149 12.1101L26.3049 16.5001L29.2149 20.8901C29.4349 21.2251 29.4749 21.6451 29.3249 22.0151C29.1749 22.3851 28.8449 22.6551 28.4549 22.7301L23.2899 23.7701L22.2499 28.9351C22.1699 29.3251 21.8999 29.6551 21.5349 29.8051C21.1699 29.9551 20.7449 29.9151 20.4099 29.6951L16.0199 26.7851L11.6299 29.6951C11.2949 29.9151 10.8749 29.9551 10.5049 29.8051C10.1349 29.6551 9.86493 29.3251 9.78993 28.9351L8.74993 23.7701L3.58493 22.7251C3.19493 22.6451 2.86493 22.3751 2.71493 22.0101C2.56493 21.6451 2.60493 21.2201 2.82493 20.8851L5.73493 16.5001L2.82493 12.1101C2.60493 11.7751 2.56493 11.3551 2.71493 10.9851C2.86493 10.6151 3.19493 10.3451 3.58493 10.2701L8.74993 9.23012L9.79493 4.06512C9.87493 3.67512 10.1449 3.34512 10.5099 3.19512ZM11.9799 16.5001C11.9799 14.2801 13.7799 12.4801 15.9999 12.4801C18.2199 12.4801 20.0199 14.2801 20.0199 16.5001C20.0199 18.7201 18.2199 20.5201 15.9999 20.5201C13.7799 20.5201 11.9799 18.7201 11.9799 16.5001ZM22.4199 16.5001C22.4199 12.9551 19.5449 10.0801 15.9999 10.0801C12.4549 10.0801 9.57993 12.9551 9.57993 16.5001C9.57993 20.0451 12.4549 22.9201 15.9999 22.9201C19.5449 22.9201 22.4199 20.0451 22.4199 16.5001Z" fill="white"/>
</svg>
