<svg width="32" height="33" viewBox="0 0 32 33" fill="none" xmlns="http://www.w3.org/2000/svg">
<path d="M30.0875 17.075L32 16.3438C32 16.3938 32 16.45 32 16.5C32 25.3375 24.8375 32.5 16 32.5C7.1625 32.5 0 25.3375 0 16.5C0 16.45 0 16.3938 0 16.3438L1.90625 17.075C2.7875 17.4125 3.775 17.3188 4.575 16.8188L5.86875 16.0125C6.19375 15.8125 6.60625 15.8125 6.93125 16.0125L8.0125 16.6875C8.9875 17.2938 10.2188 17.2938 11.1938 16.6875L12.275 16.0125C12.6 15.8125 13.0125 15.8125 13.3375 16.0125L14.4125 16.6875C15.3875 17.2938 16.6187 17.2938 17.5938 16.6875L18.675 16.0125C19 15.8125 19.4125 15.8125 19.7375 16.0125L20.8125 16.6875C21.7875 17.2938 23.0187 17.2938 23.9937 16.6875L25.075 16.0125C25.4 15.8125 25.8125 15.8125 26.1375 16.0125L27.4312 16.8188C28.2312 17.3188 29.2188 17.4125 30.1 17.075H30.0875ZM11.025 23.5C11.5554 23.5 12.0641 23.2893 12.4392 22.9142C12.8143 22.5391 13.025 22.0304 13.025 21.5C13.025 20.9696 12.8143 20.4609 12.4392 20.0858C12.0641 19.7107 11.5554 19.5 11.025 19.5C10.4946 19.5 9.98586 19.7107 9.61079 20.0858C9.23571 20.4609 9.025 20.9696 9.025 21.5C9.025 22.0304 9.23571 22.5391 9.61079 22.9142C9.98586 23.2893 10.4946 23.5 11.025 23.5ZM23.025 21.5C23.025 20.9696 22.8143 20.4609 22.4392 20.0858C22.0641 19.7107 21.5554 19.5 21.025 19.5C20.4946 19.5 19.9859 19.7107 19.6108 20.0858C19.2357 20.4609 19.025 20.9696 19.025 21.5C19.025 22.0304 19.2357 22.5391 19.6108 22.9142C19.9859 23.2893 20.4946 23.5 21.025 23.5C21.5554 23.5 22.0641 23.2893 22.4392 22.9142C22.8143 22.5391 23.025 22.0304 23.025 21.5ZM15.3375 24.5C13.4937 24.5 12.0063 25.9937 12.0063 27.8312C12.0063 28.2 12.3063 28.5 12.675 28.5H19.3312C19.7 28.5 20 28.2 20 27.8312C20 25.9875 18.5063 24.5 16.6688 24.5H15.3313H15.3375Z" fill="white"/>
<path d="M20 12.8313C20 13.2875 20.1313 13.725 20.3687 14.0938C19.475 13.7125 18.4438 13.7875 17.6063 14.3125L16.525 14.9875C16.2 15.1875 15.7875 15.1875 15.4625 14.9875L14.3875 14.3125C13.55 13.7875 12.5188 13.7188 11.625 14.0938C11.8625 13.7188 11.9937 13.2812 11.9937 12.8313V12.5C11.9937 11.3938 11.1 10.5 9.99375 10.5H7.5C5.56875 10.5 4 8.93125 4 7C4 5.06875 5.56875 3.5 7.5 3.5C8.05625 3.5 8.58125 3.63125 9.05 3.8625C9.35625 1.95625 11.0063 0.5 13 0.5C14.1938 0.5 15.2688 1.025 16 1.85625C16.7313 1.025 17.8062 0.5 19 0.5C20.9937 0.5 22.6438 1.95625 22.95 3.8625C23.4188 3.63125 23.9438 3.5 24.5 3.5C26.4312 3.5 28 5.06875 28 7C28 8.93125 26.4312 10.5 24.5 10.5H22C20.8937 10.5 20 11.3938 20 12.5V12.8313Z" fill="white"/>
</svg>
